<?xml version="1.0" encoding="UTF-8" standalone="no"?>
<svg width="399px" height="511px" viewBox="0 0 399 511" version="1.1" xmlns="http://www.w3.org/2000/svg" xmlns:xlink="http://www.w3.org/1999/xlink">
    <!-- Generator: Sketch 3.8.3 (29802) - http://www.bohemiancoding.com/sketch -->
    <title>balloons</title>
    <desc>Created with Sketch.</desc>
    <defs></defs>
    <g id="Page-1" stroke="none" stroke-width="1" fill="none" fill-rule="evenodd">
        <g id="balloons" fill="#000000">
            <g id="Group">
                <path d="M361.862,126.931 C338.67,101.826 306.579,88 271.5,88 C263.187,88 255.044,88.786 247.145,90.305 C238.571,63.274 223.133,40.655 202.323,24.774 C181.085,8.566 155.212,0 127.5,0 C92.421,0 60.33,13.826 37.138,38.931 C12.842,65.23 0,101.39 0,143.5 C0,185.965 13.293,229.608 36.472,263.236 C57.034,293.068 82.788,311.767 110.332,317.279 C110.318,317.333 110.299,317.384 110.285,317.437 L104.224,341.681 C103.663,343.921 104.167,346.295 105.588,348.116 C107.009,349.937 109.19,351 111.5,351 L120,351 L120,503.5 C120,507.642 123.358,511 127.5,511 C131.642,511 135,507.642 135,503.5 L135,351 L143.5,351 C145.81,351 147.99,349.936 149.412,348.116 C150.834,346.296 151.337,343.922 150.776,341.681 L144.715,317.437 C144.701,317.38 144.68,317.326 144.665,317.269 C149.802,316.23 154.898,314.72 159.931,312.754 C165.473,326.486 172.365,339.475 180.472,351.236 C201.034,381.068 226.788,399.767 254.332,405.279 C254.318,405.333 254.299,405.384 254.285,405.437 L248.224,429.681 C247.663,431.921 248.167,434.295 249.588,436.116 C251.009,437.937 253.19,439 255.5,439 L264,439 L264,503.5 C264,507.642 267.358,511 271.5,511 C275.642,511 279,507.642 279,503.5 L279,439 L287.5,439 C289.81,439 291.99,437.936 293.412,436.116 C294.834,434.296 295.337,431.922 294.776,429.681 L288.715,405.437 C288.702,405.383 288.682,405.332 288.668,405.279 C316.212,399.768 341.967,381.069 362.528,351.236 C385.707,317.608 399,273.965 399,231.5 C399,189.39 386.158,153.23 361.862,126.931 L361.862,126.931 Z M121.106,336 L124.837,321.075 C125.143,319.853 126.236,319 127.505,319 C128.764,319 129.858,319.854 130.163,321.075 L133.894,336 L121.106,336 L121.106,336 Z M127.5,304 C98.666,304 70.724,286.5 48.822,254.724 C27.328,223.538 15,182.999 15,143.5 C15,105.229 26.465,72.589 48.156,49.109 C68.476,27.113 96.654,15 127.5,15 C176.824,15 216.777,45.184 232.595,94.03 C227.169,95.78 221.895,97.899 216.803,100.379 C211.05,81.908 201.391,66.212 188.525,54.61 C185.449,51.837 180.707,52.081 177.932,55.157 C175.158,58.233 175.403,62.975 178.479,65.75 C190.048,76.183 198.598,90.721 203.416,108.008 C195.339,113.329 187.863,119.652 181.138,126.931 C156.842,153.23 144,189.39 144,231.5 C144,254.116 147.772,277.065 154.798,298.657 C145.836,302.201 136.675,304 127.5,304 L127.5,304 Z M265.106,424 L268.837,409.075 C269.143,407.853 270.236,407 271.505,407 C272.764,407 273.858,407.854 274.163,409.075 L277.894,424 L265.106,424 L265.106,424 Z M350.178,342.724 C328.276,374.5 300.334,392 271.5,392 C242.666,392 214.724,374.5 192.822,342.724 C171.328,311.538 159,270.999 159,231.5 C159,193.229 170.465,160.589 192.156,137.109 C198.98,129.722 206.695,123.455 215.095,118.382 C215.63,118.145 216.126,117.848 216.58,117.503 C232.854,108.038 251.621,103 271.5,103 C302.346,103 330.524,115.113 350.844,137.109 C372.535,160.589 384,193.229 384,231.5 C384,270.999 371.672,311.538 350.178,342.724 L350.178,342.724 Z" id="Shape"></path>
                <path d="M306.223,126.337 C300.681,124.164 294.819,122.527 288.797,121.473 C284.715,120.759 280.83,123.487 280.115,127.567 C279.401,131.647 282.129,135.534 286.209,136.249 C291.245,137.131 296.136,138.495 300.746,140.303 C301.645,140.656 302.571,140.823 303.482,140.823 C306.477,140.823 309.307,139.016 310.466,136.059 C311.979,132.201 310.079,127.849 306.223,126.337 L306.223,126.337 Z" id="Shape"></path>
                <path d="M250.99,354.518 C230.244,343.627 210.688,317.032 199.955,285.111 C198.635,281.184 194.38,279.071 190.456,280.392 C186.53,281.712 184.417,285.965 185.737,289.891 C197.834,325.868 219.621,354.992 244.018,367.799 C245.13,368.383 246.323,368.66 247.497,368.66 C250.195,368.66 252.803,367.2 254.144,364.644 C256.07,360.977 254.657,356.443 250.99,354.518 L250.99,354.518 Z" id="Shape"></path>
                <path d="M332.525,142.609 C329.448,139.835 324.707,140.08 321.932,143.156 C319.158,146.232 319.403,150.975 322.479,153.749 C341.516,170.916 352,198.529 352,231.5 C352,235.642 355.358,239 359.5,239 C363.642,239 367,235.642 367,231.5 C367,194.227 354.757,162.658 332.525,142.609 L332.525,142.609 Z" id="Shape"></path>
                <path d="M106.99,266.518 C86.244,255.627 66.688,229.032 55.955,197.111 C54.635,193.184 50.381,191.07 46.456,192.392 C42.53,193.712 40.417,197.965 41.737,201.891 C53.834,237.868 75.621,266.992 100.018,279.799 C101.13,280.383 102.323,280.66 103.497,280.66 C106.195,280.66 108.803,279.2 110.144,276.644 C112.07,272.977 110.657,268.443 106.99,266.518 L106.99,266.518 Z" id="Shape"></path>
                <path d="M159.482,52.821 C162.477,52.821 165.307,51.014 166.466,48.057 C167.978,44.201 166.078,39.849 162.222,38.336 C156.68,36.163 150.818,34.526 144.796,33.472 C140.715,32.756 136.829,35.486 136.114,39.566 C135.4,43.646 138.128,47.533 142.208,48.248 C147.244,49.13 152.135,50.494 156.745,52.302 C157.646,52.654 158.571,52.821 159.482,52.821 L159.482,52.821 Z" id="Shape"></path>
            </g>
        </g>
    </g>
</svg>