<?xml version="1.0" encoding="UTF-8" standalone="no"?>
<svg width="408px" height="299px" viewBox="0 0 408 299" version="1.1" xmlns="http://www.w3.org/2000/svg" xmlns:xlink="http://www.w3.org/1999/xlink">
    <!-- Generator: Sketch 3.8.3 (29802) - http://www.bohemiancoding.com/sketch -->
    <title>book</title>
    <desc>Created with Sketch.</desc>
    <defs></defs>
    <g id="Page-1" stroke="none" stroke-width="1" fill="none" fill-rule="evenodd">
        <g id="book" fill="#000000">
            <g id="Group">
                <path d="M400.186,38.376 L382.236,38.376 L382.236,21.392 C382.236,17.588 379.388,14.387 375.611,13.943 L271.611,1.729 C248.288,-1.011 224.942,2.889 203.842,13.011 C182.741,2.889 159.399,-1.012 136.073,1.729 L32.073,13.943 C28.296,14.387 25.448,17.588 25.448,21.392 L25.448,38.376 L7.5,38.376 C3.357,38.376 0,41.734 0,45.876 L0,291.308 C0,295.45 3.357,298.808 7.5,298.808 L400.186,298.808 C404.329,298.808 407.686,295.45 407.686,291.308 L407.686,45.876 C407.686,41.734 404.328,38.376 400.186,38.376 L400.186,38.376 Z M269.861,16.627 L367.235,28.063 L367.235,251.12 L271.611,239.89 C251.018,237.471 230.409,240.237 211.342,247.883 L211.342,26.065 C229.613,17.53 249.748,14.265 269.861,16.627 L269.861,16.627 Z M137.824,16.627 C157.936,14.264 178.073,17.53 196.343,26.065 L196.343,247.885 C181.759,242.037 166.275,239.038 150.585,239.038 C145.762,239.038 140.917,239.321 136.074,239.889 L40.449,251.119 L40.449,28.063 L137.824,16.627 L137.824,16.627 Z M392.686,283.808 L15,283.808 L15,53.376 L25.449,53.376 L25.449,259.552 C25.449,261.694 26.364,263.733 27.965,265.156 C29.565,266.579 31.698,267.251 33.824,267.001 L137.824,254.787 C159.432,252.248 181.072,256.199 200.391,266.211 C202.555,267.333 205.129,267.333 207.293,266.211 C226.611,256.199 248.243,252.248 269.86,254.787 L373.859,267.001 C374.151,267.035 374.443,267.052 374.734,267.052 C376.561,267.052 378.338,266.384 379.718,265.156 C381.319,263.733 382.234,261.694 382.234,259.552 L382.234,53.376 L392.684,53.376 L392.684,283.808 L392.686,283.808 Z" id="Shape"></path>
                <path d="M228.616,58.878 C242.058,55.226 255.892,54.199 269.723,55.822 L347.808,64.99 C348.106,65.025 348.401,65.042 348.693,65.042 C352.444,65.042 355.684,62.233 356.132,58.416 C356.614,54.302 353.671,50.576 349.558,50.093 L271.472,40.925 C255.722,39.076 239.981,40.247 224.684,44.404 C220.686,45.49 218.327,49.611 219.413,53.608 C220.499,57.605 224.623,59.963 228.616,58.878 L228.616,58.878 Z" id="Shape"></path>
                <path d="M58.714,65.042 C59.006,65.042 59.302,65.025 59.599,64.99 L137.677,55.823 C151.49,54.214 165.485,55.265 178.786,58.888 C182.781,59.975 186.905,57.62 187.993,53.622 C189.082,49.625 186.724,45.503 182.727,44.415 C167.583,40.29 151.665,39.092 135.933,40.925 L57.848,50.093 C53.735,50.576 50.791,54.302 51.274,58.416 C51.723,62.233 54.963,65.042 58.714,65.042 L58.714,65.042 Z" id="Shape"></path>
                <path d="M228.616,93.279 C242.058,89.627 255.89,88.6 269.723,90.223 L347.808,99.391 C348.106,99.426 348.401,99.443 348.693,99.443 C352.444,99.443 355.684,96.634 356.132,92.817 C356.614,88.703 353.671,84.977 349.558,84.494 L271.472,75.326 C255.724,73.478 239.982,74.648 224.684,78.805 C220.686,79.891 218.327,84.012 219.413,88.009 C220.499,92.005 224.623,94.365 228.616,93.279 L228.616,93.279 Z" id="Shape"></path>
                <path d="M58.714,99.442 C59.006,99.442 59.302,99.425 59.599,99.39 L137.677,90.223 C151.481,88.615 165.484,89.665 178.786,93.288 C182.781,94.375 186.905,92.02 187.993,88.022 C189.082,84.025 186.724,79.903 182.727,78.815 C167.581,74.69 151.658,73.492 135.933,75.325 L57.848,84.493 C53.735,84.976 50.791,88.702 51.274,92.816 C51.723,96.633 54.963,99.442 58.714,99.442 L58.714,99.442 Z" id="Shape"></path>
                <path d="M228.616,127.679 C242.058,124.027 255.89,123 269.723,124.623 L347.808,133.791 C348.106,133.826 348.401,133.843 348.693,133.843 C352.444,133.843 355.684,131.034 356.132,127.217 C356.614,123.103 353.671,119.377 349.558,118.894 L271.472,109.726 C255.724,107.878 239.982,109.049 224.684,113.205 C220.686,114.291 218.327,118.412 219.413,122.409 C220.499,126.406 224.623,128.765 228.616,127.679 L228.616,127.679 Z" id="Shape"></path>
                <path d="M58.714,133.843 C59.006,133.843 59.302,133.826 59.599,133.791 L137.677,124.624 C151.48,123.016 165.484,124.066 178.786,127.689 C182.781,128.777 186.905,126.421 187.993,122.423 C189.082,118.426 186.724,114.304 182.727,113.216 C167.582,109.091 151.659,107.893 135.933,109.725 L57.848,118.893 C53.735,119.376 50.791,123.102 51.274,127.216 C51.723,131.034 54.963,133.843 58.714,133.843 L58.714,133.843 Z" id="Shape"></path>
                <path d="M228.616,162.079 C242.056,158.427 255.888,157.399 269.723,159.023 L347.808,168.191 C348.106,168.226 348.401,168.243 348.693,168.243 C352.444,168.243 355.684,165.434 356.132,161.617 C356.614,157.503 353.671,153.777 349.558,153.294 L271.472,144.126 C255.724,142.279 239.983,143.448 224.684,147.605 C220.686,148.691 218.327,152.812 219.413,156.809 C220.499,160.806 224.623,163.166 228.616,162.079 L228.616,162.079 Z" id="Shape"></path>
                <path d="M58.714,168.243 C59.006,168.243 59.302,168.226 59.599,168.191 L137.677,159.024 C151.477,157.415 165.482,158.465 178.786,162.089 C182.781,163.176 186.905,160.821 187.993,156.823 C189.082,152.826 186.724,148.704 182.727,147.616 C167.582,143.491 151.655,142.293 135.933,144.126 L57.848,153.294 C53.735,153.777 50.791,157.503 51.274,161.617 C51.723,165.434 54.963,168.243 58.714,168.243 L58.714,168.243 Z" id="Shape"></path>
                <path d="M349.559,187.694 L271.473,178.526 C255.722,176.678 239.981,177.849 224.685,182.005 C220.687,183.091 218.328,187.212 219.414,191.209 C220.5,195.207 224.624,197.567 228.617,196.48 C242.059,192.829 255.893,191.802 269.724,193.424 L347.809,202.592 C348.107,202.627 348.402,202.644 348.694,202.644 C352.445,202.644 355.685,199.835 356.133,196.018 C356.615,191.904 353.672,188.177 349.559,187.694 L349.559,187.694 Z" id="Shape"></path>
                <path d="M58.714,202.644 C59.006,202.644 59.302,202.627 59.599,202.592 L137.677,193.425 C151.481,191.817 165.484,192.867 178.786,196.49 C182.781,197.578 186.905,195.222 187.993,191.224 C189.082,187.227 186.724,183.105 182.727,182.017 C167.581,177.892 151.658,176.694 135.933,178.527 L57.848,187.695 C53.735,188.178 50.791,191.904 51.274,196.018 C51.723,199.835 54.963,202.644 58.714,202.644 L58.714,202.644 Z" id="Shape"></path>
            </g>
        </g>
    </g>
</svg>