<?xml version="1.0" encoding="UTF-8" standalone="no"?>
<svg width="493px" height="471px" viewBox="0 0 493 471" version="1.1" xmlns="http://www.w3.org/2000/svg" xmlns:xlink="http://www.w3.org/1999/xlink">
    <!-- Generator: Sketch 3.8.3 (29802) - http://www.bohemiancoding.com/sketch -->
    <title>curved-lizard</title>
    <desc>Created with Sketch.</desc>
    <defs></defs>
    <g id="Page-1" stroke="none" stroke-width="1" fill="none" fill-rule="evenodd">
        <g id="curved-lizard" fill="#000000">
            <path d="M492.041,281.281 C490.71,276.463 485.682,273.636 480.849,274.974 C478.304,275.687 476.395,277.43 475.279,279.608 L456.706,284.819 L469.019,272.146 C471.454,272.21 473.883,271.345 475.726,269.466 C479.232,265.856 479.138,260.101 475.536,256.624 C471.946,253.12 466.184,253.191 462.693,256.788 C460.855,258.677 460.068,261.148 460.198,263.59 L446.942,277.245 L451.982,256.953 C454.114,255.777 455.795,253.801 456.418,251.248 C457.619,246.38 454.675,241.456 449.806,240.239 C444.941,239.031 440.026,241.994 438.791,246.86 C438.169,249.414 438.726,251.945 440.057,253.979 L433.397,280.737 C433.342,280.738 419.877,280.932 418.502,280.952 C418.42,280.811 418.343,280.68 418.25,280.522 C417.957,280.034 386.062,228.228 385.765,227.744 L385.573,227.906 C383.317,212.536 377.986,198.767 370.078,188.502 C329.652,136.071 347.228,81.747 347.228,81.747 L347.213,81.755 L350.272,73.367 C354.532,61.685 350.254,48.598 339.911,41.681 L284.632,4.672 C276.785,-0.578 266.782,-1.345 258.212,2.632 C249.648,6.62 243.804,14.785 242.764,24.164 L235.51,90.311 C234.152,102.673 241.418,114.369 253.107,118.627 C253.107,118.627 274.365,124.842 280.611,128.656 C291.897,135.548 315.146,165.519 299.122,201.581 C293.521,201.799 242.204,203.766 242.189,203.766 C242.199,203.767 242.163,203.77 242.105,203.773 C241.832,201.98 241.523,199.959 241.355,198.853 L252.211,167.416 C254.758,166.431 256.917,164.481 257.876,161.693 C259.606,156.649 256.933,151.166 251.904,149.438 C246.895,147.692 241.371,150.366 239.625,155.4 C238.666,158.202 239.159,161.067 240.588,163.43 L233.51,183.849 L229.684,164.349 C231.396,162.203 232.276,159.434 231.718,156.538 C230.692,151.302 225.601,147.909 220.398,148.932 C215.164,149.949 211.74,155.032 212.762,160.259 C213.335,163.149 215.212,165.373 217.614,166.705 L221.727,187.674 L206.327,170.152 C206.741,167.44 206.101,164.592 204.148,162.368 C200.624,158.371 194.54,157.972 190.541,161.476 C186.539,165 186.15,171.076 189.658,175.094 C191.612,177.311 194.349,178.304 197.087,178.25 L217.451,201.439 C214.389,232.948 233.127,233.475 267.498,242.762 C248.031,261.566 219.87,280.769 182.004,287.332 C185.019,266.991 188.022,259.365 178.022,245.922 C177.009,245.115 174.171,242.171 170.656,239.981 C161.925,235.105 158.008,236.163 137.352,237.151 L123.747,210.723 C124.786,208.202 124.849,205.303 123.504,202.678 C121.057,197.94 115.228,196.101 110.506,198.543 C105.799,200.958 103.909,206.799 106.343,211.542 C107.701,214.175 110.154,215.791 112.841,216.386 L122.754,235.621 L105.956,224.918 C105.59,222.196 104.197,219.648 101.716,218.055 C97.234,215.185 91.262,216.519 88.412,221.003 C85.531,225.484 86.858,231.482 91.325,234.338 C93.841,235.924 96.737,236.101 99.36,235.282 L117.071,246.577 L117.053,246.752 L94.064,245.833 C88.379,238.497 77.251,242.523 76.884,251.268 C76.659,256.591 80.807,261.067 86.122,261.308 C89.082,261.413 91.677,260.122 93.532,258.106 L126.038,259.42 L126.052,259.052 C127.052,259.315 145.968,264.334 147.169,264.644 C144.921,269.291 133.77,292.209 133.77,292.209 C79.536,291.912 -0.368,271.233 18.827,147.013 C19.458,143.034 13.707,141.555 12.357,145.38 C-5.795,196.876 -23.166,301.92 110.052,350.998 C110.052,350.998 141.464,360.547 179.504,365.718 C180.544,366.873 181.567,368.001 182.754,369.322 C183.544,370.196 205.194,394.147 205.985,395.02 C204.985,395.909 194.642,405.093 191.221,408.155 L191.08,407.845 L161.298,420.845 C158.851,419.643 155.951,419.388 153.247,420.563 C148.363,422.702 146.138,428.393 148.283,433.257 C150.379,438.11 156.096,440.383 160.978,438.256 C163.681,437.07 165.446,434.747 166.229,432.107 L186.048,423.46 L174.298,439.504 C171.575,439.688 168.938,440.922 167.192,443.297 C164.021,447.596 164.981,453.642 169.254,456.765 C173.564,459.926 179.613,459.011 182.766,454.713 C184.498,452.32 184.867,449.439 184.222,446.781 L196.842,429.561 L194.389,452.742 C192.117,454.29 190.451,456.684 190.15,459.628 C189.604,464.93 193.431,469.659 198.714,470.226 C204.017,470.788 208.755,466.951 209.331,461.647 C209.634,458.699 208.513,456.023 206.624,454.047 L209.844,423.556 C209.844,423.556 216.599,420.604 226.042,416.481 C228.563,415.31 231.491,413.293 233.745,410.82 C236.036,409.413 239.811,401.079 239.7,401.303 C244.615,387.849 238.674,378.549 234.034,369.978 C318.053,372.676 362.658,332.505 379.183,287.445 C383.07,290.948 396.216,302.88 396.216,302.88 C411.9,313.659 415.646,309.907 448.906,299.685 L448.92,299.768 L478.621,291.442 C480.702,292.707 483.247,293.187 485.777,292.484 C490.598,291.12 493.418,286.09 492.041,281.281 L492.041,281.281 Z" id="Shape"></path>
        </g>
    </g>
</svg>