<?xml version="1.0" encoding="UTF-8" standalone="no"?>
<svg width="449px" height="296px" viewBox="0 0 449 296" version="1.1" xmlns="http://www.w3.org/2000/svg" xmlns:xlink="http://www.w3.org/1999/xlink">
    <!-- Generator: Sketch 3.8.3 (29802) - http://www.bohemiancoding.com/sketch -->
    <title>lilly</title>
    <desc>Created with Sketch.</desc>
    <defs></defs>
    <g id="Page-1" stroke="none" stroke-width="1" fill="none" fill-rule="evenodd">
        <g id="lilly" fill="#000000">
            <g id="Page-1">
                <g id="lilly">
                    <path d="M243.9,82.4 C240.8,73.6 237.8,65.1 234.4,55.6 C241.3,55.6 247.1,55.4 252.9,55.8 C254,55.9 255.5,58.4 256,60 C260.3,74.7 266.8,88.3 277.1,99.8 C287,110.8 299,118.6 313.1,123.2 C313,123.7 312.9,124.3 312.8,124.8 C305.7,123.7 298.4,123.2 291.4,121.4 C274.6,117.2 261.4,107.3 251.5,93.2 C249.4,90.2 247.1,88.8 243.5,88.5 C182.5,83.6 123,88.7 66.5,114.1 C48.9,122 32.8,132.4 20.3,147.5 C13.8,155.3 9,164 7.3,174.1 C4.1,192.6 11.1,206.7 26.3,217 C42.3,227.7 60.5,231.2 79.2,233.1 C83,233.5 86.8,233.8 90.7,234.1 C92.7,259.2 109.3,271.1 130.2,279 C147.5,285.6 165.7,288 184.1,288.7 C232,290.4 278.9,284.8 323.8,267.1 C348.4,257.4 370.8,244.2 387.7,223.2 C395.7,213.2 401.1,201.9 403.4,189.1 C405.7,176.6 403.3,165 396.4,154.8 C390.3,145.9 383.1,137.8 376.9,130 C376.7,129.9 377.7,130.3 378.4,130.8 C393.3,142.7 405.7,156.4 409.3,175.9 C412.8,194.5 407,210.8 396,225.5 C382.5,243.6 364.2,255.6 344.2,265.3 C313.6,280.1 281,288 247.5,292.1 C223.6,295 199.7,296.2 175.7,294.1 C156.9,292.5 138.3,289.4 121,281.4 C103.6,273.4 90,262 85.9,242 C85.6,240.8 82.8,239.4 81.1,239.3 C65.8,237.9 50.8,235.2 36.5,229.1 C26.2,224.7 16.9,219 10.1,209.9 C-2.8,192.4 -1.8,174.1 8.1,155.9 C17.5,138.5 32.7,126.8 49.4,117 C76.4,101.3 105.7,92.5 136.2,87 C171.3,80.7 206.7,79.4 242.2,82.6 C242.6,82.6 243.2,82.5 243.9,82.4 L243.9,82.4 L243.9,82.4 Z" id="Shape"></path>
                    <path d="M421,24.9 C432.4,69.1 390.6,123.5 347.9,120.7 C337.7,80.1 377.4,27.9 421,24.9 L421,24.9 L421,24.9 Z" id="Shape"></path>
                    <path d="M263.4,24.9 C306.8,27.3 344.1,75.9 336.7,120.6 C295.2,117 254.9,83.5 263.4,24.9 L263.4,24.9 L263.4,24.9 Z" id="Shape"></path>
                    <path d="M342.4,79.7 C341.1,75.5 340.2,71.5 338.8,67.7 C335.1,57.8 329.3,49.5 320.8,43.1 C319.6,42.2 318,40.1 318.3,39 C322.7,24.2 330.8,11.7 342.3,0.9 C351.8,12.1 360.8,22.9 364.3,37.1 C364.7,38.8 364.7,41.4 363.7,42.5 C353.9,52.7 348,65 343.3,78.1 C343.1,78.5 342.8,78.9 342.4,79.7 L342.4,79.7 L342.4,79.7 Z" id="Shape"></path>
                    <path d="M371.5,123.8 C371.7,123.6 371.8,123.2 372,123.1 C402,112.9 419.4,91.2 428,61.7 C429.4,56.7 431.5,55 436.5,55.5 C440.6,55.9 444.7,55.6 448.8,55.6 C449.3,90.3 406.3,127.9 371.5,123.8 L371.5,123.8 L371.5,123.8 Z" id="Shape"></path>
                    <path d="M194.3,176.3 C193.2,180.7 191.2,179.9 188.5,179 C177.4,175.2 166.4,170.6 155,168.1 C132,163.1 108.6,163.1 85.4,165.7 C63.3,168.2 41.4,172.3 19.3,175.5 C17.8,175.7 16,174.4 14.4,173.7 C15.6,172.4 16.6,170.3 18,170 C37.5,166.6 56.9,162.7 76.5,160.3 C101,157.4 125.7,157.2 150.2,161 C164.2,163.2 177.9,166.8 190.6,173.3 C192.1,174.1 193.2,175.4 194.3,176.3 L194.3,176.3 L194.3,176.3 Z" id="Shape"></path>
                    <path d="M114.1,113.3 C144.1,113.6 171.5,117.5 197,129.9 C204.9,133.7 212.2,138.7 219.7,143.4 C220.7,144.1 220.8,146.3 221.3,147.9 C219.7,148 217.6,148.8 216.5,148 C177.2,120.3 132.9,116.8 87,121.1 C86.3,121.2 85.6,121.6 85,121.3 C83.8,120.7 82.6,119.9 81.5,119.1 C82.4,117.9 83.1,116 84.2,115.8 C88.6,114.9 93.1,114.3 97.5,114 C103.7,113.7 109.8,113.5 114.1,113.3 L114.1,113.3 L114.1,113.3 Z" id="Shape"></path>
                    <path d="M342.7,233.7 C342.5,236.8 342.4,241.5 341.7,246.1 C341.5,247.6 339.4,248.8 338.2,250.1 C337.4,248.5 335.8,246.9 336,245.5 C339.6,215.7 327.6,191.1 309.2,169.2 C301.5,160.1 292.2,152.4 283.8,143.9 C282.7,142.8 282.5,140.7 281.8,139 C283.5,139 285.9,138.3 287,139.2 C311.9,159.2 331.8,182.8 340,214.5 C340.7,217.2 341.3,220 341.7,222.8 C342.2,225.8 342.3,229 342.7,233.7 L342.7,233.7 L342.7,233.7 Z" id="Shape"></path>
                    <path d="M266.7,255.7 C266.1,260.1 265.4,266.9 264.3,273.6 C264.1,274.8 262,275.8 260.8,276.8 C260.1,275.3 258.6,273.7 258.8,272.4 C264.3,241.5 255.1,213.4 242.5,186 C239,178.5 234.6,171.4 230.8,163.9 C230.2,162.6 230.8,160.7 230.9,159.1 C232.5,159.7 235,159.8 235.7,161 C252.9,189.4 265.4,219.5 266.7,255.7 L266.7,255.7 L266.7,255.7 Z" id="Shape"></path>
                    <path d="M188.8,96 C218.7,98.9 247.2,106.6 271.3,126.5 C272.2,127.2 273.4,127.9 273.8,128.8 C274.4,130.1 274.4,131.7 274.6,133.2 C273.1,133.2 271.6,133.3 270.2,133.2 C269.9,133.2 269.7,132.8 269.4,132.6 C245.7,112.3 217.4,104.6 187.2,102 C186.7,102 186.1,102.1 185.7,101.9 C184.2,100.9 182.8,99.9 181.3,98.8 C182.8,97.8 184.2,96.8 185.7,96 C186.5,95.7 187.5,96 188.8,96 L188.8,96 L188.8,96 Z" id="Shape"></path>
                    <path d="M212,220.9 C211.4,236.6 209.7,251.9 202.9,266.2 C200.5,271.3 197.1,275.8 193.8,280.4 C193.2,281.3 191,281 189.5,281.3 C189.4,279.8 188.6,277.8 189.3,276.9 C206.3,255.2 206,230 204.2,204.5 C203.9,199.7 202.8,195 202.5,190.2 C202.4,188.6 203.7,186.9 204.3,185.3 C205.6,186.6 207.9,187.8 208.1,189.3 C209.7,199.7 210.8,210.3 212,220.9 L212,220.9 L212,220.9 Z" id="Shape"></path>
                    <path d="M382.2,7.2 C384.8,14 387.2,20.2 389.6,26.6 C383.7,29.3 378,31.9 372.4,34.4 C370.3,28.9 368.2,23.4 365.9,17.3 C370.8,14.2 376.1,11 382.2,7.2 L382.2,7.2 L382.2,7.2 Z" id="Shape"></path>
                    <path d="M302.3,7.2 C308.1,10.8 313.6,14.2 318.6,17.3 C316.3,23.3 314.1,28.8 312,34.3 C306.7,31.9 301,29.3 294.9,26.6 C297.4,20.3 299.8,14 302.3,7.2 L302.3,7.2 L302.3,7.2 Z" id="Shape"></path>
                </g>
            </g>
        </g>
    </g>
</svg>