<?xml version="1.0" encoding="UTF-8" standalone="no"?>
<svg width="64px" height="64px" viewBox="0 0 64 64" version="1.1" xmlns="http://www.w3.org/2000/svg" xmlns:xlink="http://www.w3.org/1999/xlink">
    <!-- Generator: Sketch 3.8.3 (29802) - http://www.bohemiancoding.com/sketch -->
    <title>more</title>
    <desc>Created with Sketch.</desc>
    <defs></defs>
    <g id="Page-1" stroke="none" stroke-width="1" fill="none" fill-rule="evenodd">
        <g id="more" fill="#000000">
            <g id="Ellipsis">
                <path d="M32,0 C14.3269157,0 0,14.3268995 0,32 C0,49.6731005 14.3269148,64 32,64 C49.6730852,64 64,49.6730995 64,32 C64,14.3269005 49.6730995,0 32,0 L32,0 Z M32,62 C15.4580002,62 2,48.542099 2,32 C2,15.4580002 15.4579992,2 32,2 C48.542099,2 62,15.4580002 62,32 C62,48.542099 48.542099,62 32,62 L32,62 Z" id="Shape"></path>
                <path d="M18,27 C15.2386007,27 13.000001,29.2385998 13.000001,32 C13.000001,34.7614002 15.2386007,37 18,37 C20.7613993,37 23,34.7613983 23,32 C23,29.2386017 20.7614002,27 18,27 L18,27 Z M18,35 C16.3458004,35 15,33.6543007 15,32 C15,30.3458004 16.3458004,29 18,29 C19.6543007,29 21,30.3458004 21,32 C21,33.6543007 19.6543007,35 18,35 L18,35 Z" id="Shape"></path>
                <path d="M32,27 C29.2385998,27 27,29.2385998 27,32 C27,34.7614002 29.2385998,37 32,37 C34.7614002,37 37,34.7613983 37,32 C37,29.2386017 34.7613983,27 32,27 L32,27 Z M32,35 C30.3458004,35 29,33.6543007 29,32 C29,30.3458004 30.3458004,29 32,29 C33.6543007,29 35,30.3458004 35,32 C35,33.6543007 33.6543007,35 32,35 L32,35 Z" id="Shape"></path>
                <path d="M46,27 C43.2385979,27 41,29.2385998 41,32 C41,34.7614002 43.2385979,37 46,37 C48.7613983,37 51,34.7613983 51,32 C51,29.2386017 48.7613983,27 46,27 L46,27 Z M46,35 C44.3457985,35 43,33.6543007 43,32 C43,30.3458004 44.3457985,29 46,29 C47.6543007,29 49,30.3458004 49,32 C49,33.6543007 47.6543007,35 46,35 L46,35 Z" id="Shape"></path>
            </g>
        </g>
    </g>
</svg>