<?xml version="1.0" encoding="UTF-8" standalone="no"?>
<svg width="123px" height="123px" viewBox="0 0 123 123" version="1.1" xmlns="http://www.w3.org/2000/svg" xmlns:xlink="http://www.w3.org/1999/xlink">
    <!-- Generator: Sketch 3.8.3 (29802) - http://www.bohemiancoding.com/sketch -->
    <title>team</title>
    <desc>Created with Sketch.</desc>
    <defs></defs>
    <g id="Page-1" stroke="none" stroke-width="1" fill="none" fill-rule="evenodd">
        <g id="team" fill="#000000">
            <g id="Group">
                <circle id="Oval" cx="19.5" cy="12.2" r="12.1"></circle>
                <path d="M6,66.699 L7.2,66.699 L7.2,90.699 C7.2,94 9.9,96.699 13.2,96.699 L25.8,96.699 C29.1,96.699 31.8,94 31.8,90.699 L31.8,89.3 C30.7,87.199 30,84.8 30,82.3 L30,50.9 C30,44.8 33.7,39.5 39,37.2 L39,34.8 C39,31.5 36.3,28.8 33,28.8 L6,28.8 C2.7,28.8 0,31.5 0,34.8 L0,60.7 C0,64 2.6,66.699 6,66.699 L6,66.699 Z" id="Shape"></path>
                <circle id="Oval" cx="103.3" cy="12.2" r="12.1"></circle>
                <path d="M83.699,34.7 L83.699,37.1 C89,39.4 92.699,44.7 92.699,50.8 L92.699,82.1 C92.699,84.6 92.099,87 90.9,89.1 L90.9,90.5 C90.9,93.8 93.599,96.5 96.9,96.5 L109.5,96.5 C112.8,96.5 115.5,93.8 115.5,90.5 L115.5,66.5 L116.699,66.5 C120,66.5 122.699,63.8 122.699,60.5 L122.699,34.7 C122.699,31.4 120,28.7 116.699,28.7 L89.699,28.7 C86.4,28.7 83.699,31.399 83.699,34.7 L83.699,34.7 Z" id="Shape"></path>
                <path d="M39.1,50.899 L39.1,50.899 L39.1,60.699 L39.1,82.299 C39.1,85.599 41.8,88.299 45.1,88.299 L47.4,88.299 L47.4,116.599 C47.4,119.899 50.1,122.599 53.4,122.599 L69.5,122.599 C72.8,122.599 75.5,119.899 75.5,116.599 L75.5,88.199 L77.8,88.199 C81.1,88.199 83.8,85.5 83.8,82.199 L83.8,60.7 L83.8,50.9 L83.8,50.9 C83.8,47.6 81.1,44.9 77.8,44.9 L45.1,44.9 C41.7,44.899 39.1,47.6 39.1,50.899 L39.1,50.899 Z" id="Shape"></path>
                <circle id="Oval" cx="61.4" cy="26" r="13.9"></circle>
            </g>
        </g>
    </g>
</svg>